<svg xmlns="http://www.w3.org/2000/svg" width="1024" height="1024" preserveAspectRatio="none" style="display:block" viewBox="0 0 2048 2048"><path fill="#43322C" d="M384.168 333.626c22.716-8.898 88.639-.87 115.387-3.633 9.344-.965 25.614 1.272 33.569 6.504 14.62 5.251 28.087 28.366 34.415 41.999 5.7 12.28 17.746 29.98 21.99 42.15 9.845 17.006 19.636 35.873 28.957 53.25 5.251 9.787 14.947 27.022 19.143 36.894 8.712 11.93 12.51 27.614 22.8 38.493 27.302 28.863 96.038 68.753 110.817 101.623 10.071 22.397 15.237 47.993 21.981 71.61l34.098 117.524c19.153 66.939 11.512 58.501 64.146 102.671l57.385 48.685c11.55 9.774 40.335 32.164 46.443 44.694 6.001 9.02 12.241 23.51 16.821 33.63l21.98 48.99c10.86 24.33 29.72 63.43 38.65 87.35l.92 1.62c8.52 15.23 20.98 53.39 31.4 64.13 20.72 21.38 76.89 36.27 98.02 54.77 27.9 24.43 62.8 81.25 83.28 113.65 9.49 13.44 18.1 26.52 29.31 38.6 23.87 16.47 50.77 28.61 76 42.86 10.91 6.16 26.38 13.17 35.8 21.1 43.38 36.51 79.57 84.23 121.78 121.8 26.48.34 52.96.44 79.43.3 9.73-.01 42.86-2.33 48.73 4.15 6.23 4.48 10.35 10.38 11.47 18.11a27.37 27.37 0 0 1-5.98 21.26 30.85 30.85 0 0 1-16.06 10.35l-6.82.88c-39.16.87-80.78.11-120.14.11l-209.48-.1c-3.67.26-5.83-.01-9.53-.34-13.12 1.12-34.06.51-47.72.52l-91.37-.18-264.952-.02-348.612.04-116.498.08c-18.696.01-37.559.18-56.262.08-4.167-.02-7.862-1.55-11.648-3.2-5.086-2.13-9.337-4.55-12.977-8.77-10.604-8.46-14.125-21.67-14.346-34.7-.473-27.89.027-55.8-.005-83.7l-.031-178.35.024-511.155-.096-338.775.085-106.375c-.067-18.211-1.018-46.521.387-64.165-3.087-23.418 3.912-47.294 27.309-57.014m31.058 1331.424 714.384.07 230.02-.05c38.94 0 79.44.65 118.22-.08l-44.76-45.04c-21.44-21.77-28.44-30.46-55.09-45.54-7.47-2.81-34.72-18.96-42.84-23.26-15.6-8.25-37.86-20.34-51.35-30.95-17.18-13.5-33.03-39.26-45.51-57.74l-32.31-47.92c-22.47-33.93-20.98-40.36-57.66-58.69-18.37-9.18-68.49-33.13-79.58-46.01-13.8-11.54-32.65-57.99-40.87-75.78-18.02-38.9-35.844-77.89-53.456-116.97-7.536-16.64-15.76-36.62-25.372-51.99-3.029-4.85-14.77-14.69-19.783-19.39-4.84-2.89-44.499-37.34-50.249-42.57-18.771-17.097-54.975-43.369-70.147-61.23-15.19-16.695-27.138-65.444-33.876-88.502l-36.248-127.506c-4.571-16.129-9.431-36.409-16.076-51.62-1.209-2.768-10.598-11.158-13.335-13.743-7.56-4.356-31.98-25.006-39.363-31.271-14.101-11.964-39.488-30.69-50.918-44.058-10.804-12.636-25.765-42.793-34.389-58.833L530.37 424.829c-6.556-12.269-14.482-29.069-21.231-40.599-31.341-.439-62.828.268-94.033-.167 1.188 30.919.572 64.998.57 96.167l-.02 160.705.024 484.255.03 360.75.014 113.87c.016 19.85.823 46.13-.498 65.24"/><path fill="#020201" d="M356.859 390.64c1.67 2.316 2.129 3.405 2.195 6.384.722 32.938.229 66.412.109 99.322l.452 159.35-.375 1003.574c.051 7.89.112 19.29 1.311 27.15.831 5.44 10.268 16.34 10.29 21.44-10.604-8.46-14.125-21.67-14.346-34.7-.473-27.89.027-55.8-.005-83.7l-.031-178.35.024-511.155-.096-338.775.085-106.375c-.067-18.211-1.018-46.521.387-64.165"/><path fill="#020201" d="M383.818 1716.63c-.19.11 194.612-.45 212.531-.29l291.875.12 98.668-.19c19.108.11 39.768.89 58.608.71l173.03-.67c24.95-.03 79.49-1.4 102.35 3-13.12 1.12-34.06.51-47.72.52l-91.37-.18-264.952-.02-348.612.04-116.498.08c-18.696.01-37.559.18-56.262.08-4.167-.02-7.862-1.55-11.648-3.2"/><path fill="#020201" d="M1330.41 1719.65c20.62-6.14 66.94-3.08 90.59-3.01l143.45.37c30.67 0 62.05-1.68 92.82.32 1.88.12 1.66.76 2.76 2.31-39.16.87-80.78.11-120.14.11z"/><path fill="#020201" d="M995.299 1036.09c6.001 9.02 12.241 23.51 16.821 33.63l21.98 48.99c10.86 24.33 29.72 63.43 38.65 87.35l-1.72.61c-9-9.46-31.22-70.84-39.19-85.93-12.61-23.91-22.92-55.37-36.862-79.23-1.368-2.34-.572-3.43.321-5.42"/><path fill="#020201" d="M384.168 333.626c22.716-8.898 88.639-.87 115.387-3.633 9.344-.965 25.614 1.272 33.569 6.504-4.969 1.024-11.656-2.302-17.107-2.518-9.751-.385-20.21-.129-29.996-.11l-65.696.147c-4.76.009-33.648.917-36.157-.39"/><path fill="#020201" d="M589.529 420.646c9.845 17.006 19.636 35.873 28.957 53.25 5.251 9.787 14.947 27.022 19.143 36.894-3.832-.422-7.207-7.482-8.883-10.743-13.129-25.547-28.274-50.398-40.036-76.564z"/><path fill="#020201" d="M1677.42 1669.04c6.23 4.48 10.35 10.38 11.47 18.11a27.37 27.37 0 0 1-5.98 21.26 30.85 30.85 0 0 1-16.06 10.35l-2.89-1.29c7.75-5.91 7.69-.54 19.7-13.39 6.4-21.01-1.17-19.2-6.24-35.04"/><path fill="#020201" d="M1286.37 1440.23c9.49 13.44 18.1 26.52 29.31 38.6-4.05-1.41-7.93-4.26-10.37-7.69-4.22-5.96-21.14-23.76-18.94-30.91"/><path fill="#43322C" d="M707.719 1045.71c-12.381-14.43-30.572-53.756-39.953-71.912l-52.794-101.784-37.948-72.763c-7.639-14.747-28.186-44.945-16.239-60.426 10.05-13.023 24.963-15.007 38.342-5.095l1.2.834c9.966 7.629 38.338 64.864 46.556 80.53a13505 13505 0 0 1 68.75 133.2c9.56 18.98 24.086 52.286 36.932 67.486 60.227 48.34 72.202 43.73 103.778 115.38 7.121 14.19 13.819 29.74 20.219 44.46 17.417 40.07 36.571 80.11 51.202 121.24 3.229 9.08-1.646 19.43-8.302 25.84-9.229 5.87-17.956 7.59-28.485 3.69-15.116-8.08-20.397-29.07-26.53-44-23.548-57.31-48.245-114.97-77.168-169.72-2.554-4.83-12.813-13.28-17.359-17.26-6.303-2.25-56.94-42.72-62.201-49.7"/><path fill="#020201" d="M707.719 1045.71c-12.381-14.43-30.572-53.756-39.953-71.912l-52.794-101.784-37.948-72.763c-7.639-14.747-28.186-44.945-16.239-60.426 10.05-13.023 24.963-15.007 38.342-5.095-2.038.577-1.862 1.027-3.805.335-8.488-3.021-14.272-2.783-23.011-1.627l-.793.118c-10.204 9.891-15.146 16.826-8.737 31.884 4.703 11.049 10.862 21.847 16.403 32.54a6528 6528 0 0 0 35.906 68.381l73.121 140.989c4.659 9.03 14.297 27.87 20.136 37.49-.21.62-.419 1.25-.628 1.87"/><path fill="#020201" d="M600.327 734.564c9.966 7.629 38.338 64.864 46.556 80.53a13505 13505 0 0 1 68.75 133.2c9.56 18.98 24.086 52.286 36.932 67.486l-1.966.57c-4.509-2.64-7.717-7.37-10.105-11.94-13.117-25.089-25.369-50.648-38.223-75.879a14099 14099 0 0 0-74.609-142.795c-3.763-7.084-27.17-47.676-27.335-51.172"/><path fill="#020201" d="M769.92 1095.41c8.366-.32 20.257 14.75 23.755 21.93 21.473 44.07 43.909 90.56 62.362 135.9 5.101 12.58 10.128 25.2 15.083 37.84 5.658 14.56 7.133 21.96 19.59 33.24l.267 2.07c-15.116-8.08-20.397-29.07-26.53-44-23.548-57.31-48.245-114.97-77.168-169.72-2.554-4.83-12.813-13.28-17.359-17.26"/><path fill="#020201" d="M919.462 1322.7c-.69-3.84 3.305-9.15 4.936-13.06 3.994-9.55-2.531-21.67-6.484-31.06-19.681-46.74-40.183-93.16-61.054-139.39-1.56-3.45-1.959-4.77-.517-8.03 7.121 14.19 13.819 29.74 20.219 44.46 17.417 40.07 36.571 80.11 51.202 121.24 3.229 9.08-1.646 19.43-8.302 25.84"/><path fill="#020201" d="M709.338 660.539c4.447.081 9.736 5.155 12.75 8.382 9.633 10.312 18.783 53.831 23.407 69.721 14.412 49.535 27.168 99.779 42.923 148.895 3.348 10.438 6.355 21.173 10.415 31.355 2.001 5.019 9.929 17.955 10.123 22.072.015.316-.055.63-.083.946-15.19-16.695-27.138-65.444-33.876-88.502l-36.248-127.506c-4.571-16.129-9.431-36.409-16.076-51.62-1.209-2.768-10.598-11.158-13.335-13.743"/><path fill="#020201" d="M929.269 1045.71c7.058-.53 22.496 16.75 25.557 22.84 12.771 25.37 24.324 51.78 36.066 77.65l53.798 117.66c5.06 11.24 16.85 33.43 24.04 44.89 0 .36.01.72.02 1.09-13.8-11.54-32.65-57.99-40.87-75.78-18.02-38.9-35.844-77.89-53.456-116.97-7.536-16.64-15.76-36.62-25.372-51.99-3.029-4.85-14.77-14.69-19.783-19.39"/><path fill="#020201" d="M1378 1574.41c3.63-1.26 3.85-.58 8.32 1.65a99.8 99.8 0 0 1 20.5 13.85c6.34 5.5 72.55 72.29 73.34 74.51-1.82.73-1.03.69-2.31.57l-44.76-45.04c-21.44-21.77-28.44-30.46-55.09-45.54"/><path fill="#43322C" d="M1097.27 687.6c5-20.382 29.48-98.934 40.15-113.417 4.64-6.308 10.44-10.941 17.47-14.361 12.38-6.025 27.44-9.06 40.62-13.24 20.1-6.37 52.42-19.012 72.4-21.56 7.94-1.013 17.01-.433 24.49 2.569 18.25 7.318 34.43 22.621 50.16 34.202 16.31 12.007 33.06 23.619 49.01 36.085 15.78 12.337 23.3 22.314 25.84 42.664.39 5.755.97 18.182.52 23.869-1.59 20.081 4.63 69.918-5.37 85.751a41.7 41.7 0 0 1-13.66 17.285c-16.77 12.213-41.41 20.902-60.55 29.633-23.51 10.723-46.92 22.313-70.87 31.98-13.35 5.39-27.76 10.383-41.77 4.531-12.91-5.393-78.94-57.833-89.38-68.889-28.69-17.818-50.82-41.118-39.06-77.102m63.65 27.035c6.45 4.915 76.39 59.696 77.86 61.964 1.7.83 3.72 1.948 5.59 2.319 5.58 1.101 104.7-45.114 114.81-51.444 3.69-2.31 3.94-5.799 4.89-9.759l-2.14-71.246c-8.64-9.065-33.14-27.119-44.29-35.71-10.9-8.39-31.84-25.507-42.61-32.248-21.95 6.262-43.84 14.879-65.61 21.922-9.98 3.23-20.45 6.836-30.03 11.004l-.45 1.72c-3.64 13.452-32.9 83.957-29.36 90.901 2.17 4.255 7.63 7.656 11.34 10.577"/><path fill="#020201" d="M1417.41 640.542c.39 5.755.97 18.182.52 23.869-1.59 20.081 4.63 69.918-5.37 85.751-.24-.505-.49-1.01-.73-1.515 6.04-32.03 1.37-64.974 2.71-97.337.24-5.742 1.25-7.629 2.87-10.768"/><path fill="#020201" d="M1097.27 687.6c3.58 5.509-4.25 35.26 8.67 47.762 4.74 4.579 30.17 25.317 30.39 29.34-28.69-17.818-50.82-41.118-39.06-77.102"/><path fill="#291E1B" d="M1364.07 717.715c.8 1.927 2.16 5.277.87 7.268-4.76 7.36-20.4 12.696-28.86 16.714-28 13.29-56.33 26.316-84.54 39.12-4.71 2.137-12.13 2.316-12.76-4.218 1.7.83 3.72 1.948 5.59 2.319 5.58 1.101 104.7-45.114 114.81-51.444 3.69-2.31 3.94-5.799 4.89-9.759"/><path fill="#291E1B" d="M1160.92 714.635c-4.41.98-3.59.666-8.41-1.038-2.32-.825-4.36-5.814-4.89-8.113-.64-2.745-.44-10.021.38-12.488 4.8-14.45 22.57-70.92 29.52-81.269l1.87-.29-.45 1.72c-3.64 13.452-32.9 83.957-29.36 90.901 2.17 4.255 7.63 7.656 11.34 10.577"/><path fill="#43322C" d="M1462.03 1160.37c17.89-4.23 65.84-3 84.07.21 11.95 3.45 30.48 14.72 34.32 27.15 5.31 8.56 12.1 22.11 16.16 31.33 10.42 23.7 39 62.01 18.05 87.17-5.61 11.94-19.47 26.67-27.1 37.94-20.49 30.25-37.49 57.07-79.27 48.78-6.58-1.31-30.74-2.52-34.95-4.64-15.97-1.03-48.72-3.89-57.5-18.08-12.62-20.36-38.05-64.93-44.2-86.92a40.38 40.38 0 0 1 3.79-31.17c1.21-2.49 4.77-8.19 6.48-10.06 19.56-21.42 51.27-77.12 80.15-81.71m-33.13 104.74-5.84 8.84c6.4 13.39 12.76 26.84 19.22 40.2 4.7 9.71 6.43 15.88 16.81 20.27 14.4-1.47 43.25 6.42 57.54 5.92 13.26-.47 35.4-37.61 44.68-48.46 3.42-4.25 4.56-6.07 7.26-10.82-3.91-9.89-31.22-64.68-36.75-71.61-11.19-2.12-41.65-1.41-54.65-1.36-8.92 9.07-43.43 54-48.27 57.02"/><path fill="#020201" d="M1375.4 1252.14c2.66 5.06-3.62 21.01-1.3 28.59 5.01 16.34 14.28 31.16 21.32 46.68 9.36 19 13.42 34.62 30.93 47.82 13.16 9.92 39.65 5.75 46.96 13.08-15.97-1.03-48.72-3.89-57.5-18.08-12.62-20.36-38.05-64.93-44.2-86.92a40.38 40.38 0 0 1 3.79-31.17"/><path fill="#020201" d="M1580.42 1187.73c5.31 8.56 12.1 22.11 16.16 31.33 10.42 23.7 39 62.01 18.05 87.17-1.34-7.24 8.59-19.63 2.43-36.42-9.61-26.16-26.93-53.34-37.55-79.34.3-.91.61-1.83.91-2.74"/><path fill="#020201" d="M1462.03 1160.37c17.89-4.23 65.84-3 84.07.21-.47 1.8.03.93-1.99 2.25-3.37-.51-11.48-.68-13.85-1.06-10.08-1.6-63.9 1.25-68.23-1.4"/><path fill="#020201" d="m1477.17 1208.09-.33-1.52c10.69-3.87 43.17-2.13 55.13.87 3.58.9 12.91 16.85 14.21 21.43 4.62 16.16 35.01 49.93 17.89 63.33-2.16.13-1.26.37-2.76-.32 3.42-4.25 4.56-6.07 7.26-10.82-3.91-9.89-31.22-64.68-36.75-71.61-11.19-2.12-41.65-1.41-54.65-1.36"/><path fill="#020201" d="m1459.09 1334.42-2.67 1.24c-12.71-1.19-28.27-45.03-33.7-56.36-2.61-5.45-1.91-13.4 6.18-14.19l-5.84 8.84c6.4 13.39 12.76 26.84 19.22 40.2 4.7 9.71 6.43 15.88 16.81 20.27"/><path fill="#43322C" d="M1283.49 970.099c5.02-10.316 45.2-54.821 57.46-59.245 18.65-6.729 48.99 7.804 67.96 13.128 14.94 4.193 29.54 9.673 35.62 25.948 1.97 4.706 4.23 13.207 4.74 18.227 2.15 20.913 14.84 58.223 4.13 76.603-6.73 10.65-20.75 17.69-32.32 22.09-27.03 10.29-53.14 28.98-82.18 15.52-15.88-8.75-46.6-59.02-55.7-77-4.83-9.53-4.27-24.802.29-35.271"/><path fill="#020201" d="M1283.49 970.099c2.55 4.42-2.09 20.017.07 26.874 6.82 21.617 40.07 69.737 56.12 83.607l-.78 1.79c-15.88-8.75-46.6-59.02-55.7-77-4.83-9.53-4.27-24.802.29-35.271"/><path fill="#020201" d="M1453.4 1044.76c-1.58-4.76 2.42-16.53 1.75-24.67-.94-11.49-13.24-63.395-10.62-70.16 1.97 4.706 4.23 13.207 4.74 18.227 2.15 20.913 14.84 58.223 4.13 76.603"/><path fill="#43322C" d="M844.554 659.846c5.42-15.38 18.131-33.003 24.7-47.953 7.882-17.937 25.756-36.578 46.635-32.038 21.519 4.679 48.695 16.692 67.298 27.417 14.476 11.555 15.946 40.968 20.463 58.496 3.41 13.266 7.31 31.227-1.13 43.098-5.632 12.248-51.407 35.435-64.387 40.132a65 65 0 0 1-9.894 2.798c-18.203-.158-27.177-5.948-39.54-18.864-14.914-15.581-32.744-29.654-43.727-48.487-4.394-7.535-2.695-16.679-.418-24.599"/><path fill="#020201" d="M844.554 659.846c4.26 4.337-.482 18.821 3.431 24.296 15.716 21.988 38.221 42.797 58.94 60.208 5.194 4.364 16.942 3.245 21.314 7.446-18.203-.158-27.177-5.948-39.54-18.864-14.914-15.581-32.744-29.654-43.727-48.487-4.394-7.535-2.695-16.679-.418-24.599"/><path fill="#020201" d="M983.187 607.272c14.476 11.555 15.946 40.968 20.463 58.496 3.41 13.266 7.31 31.227-1.13 43.098l-.94-2.153c9.4-21.425-7.522-62.15-11.068-85.195-.611-3.967-7.492-8.331-7.325-14.246"/><path fill="#43322C" d="M1199.72 1135.26c24.47-10.61 47.02 8.25 61.83 26.42 9.18 10.81 12.57 19.33 11.23 34.04-1.43 15.85-5.7 32.46-18.34 43.18-14.45 12.24-40.57 12.85-58.16 7.75-22.2-4.89-28.74-25.39-32.59-45.1-2.34-11.98-3.34-26.94 3.82-37.44 3.98-8.79 22.73-26.64 32.21-28.85"/><path fill="#020201" d="M1167.51 1164.11c1.58 4.19-1.35 10.63-1.65 17.2-.89 19.12 4.09 51.2 23.39 59.98 2.66 1.19 5.35 2.32 8.06 3.39l.1 1.27-1.13.7c-22.2-4.89-28.74-25.39-32.59-45.1-2.34-11.98-3.34-26.94 3.82-37.44"/><path fill="#020201" d="M1199.72 1135.26c24.47-10.61 47.02 8.25 61.83 26.42-7.09-.84-23.33-19.54-32.98-24.01-9.12-4.23-20.54 1.44-28.85-2.41"/><path fill="#43322C" d="M1087.39 989.625c5.18-11.289 24.29-33.878 34.85-40.647 26.8-17.186 45.71-3.89 61.14 18.22 6.02 7.962 12.2 15.985 14.66 25.906a59.46 59.46 0 0 1-8.94 44.276c-8.77 12.96-21.54 19.25-36.47 22.25-8.28 1.66-26.25.36-31.83-6.7-9.5-5.21-26.86-22.14-31.52-32.3-5.43-11.81-6.04-19.06-1.89-31.005"/><path fill="#020201" d="M1087.39 989.625c1.22 2.162 1.6 1.704 1.3 4.17-2.78 23.015 6.91 34.325 23.29 48.625 2.7 2.35 8.51 6.87 8.82 10.51-9.5-5.21-26.86-22.14-31.52-32.3-5.43-11.81-6.04-19.06-1.89-31.005"/><path fill="#020201" d="M1183.38 967.198c6.02 7.962 12.2 15.985 14.66 25.906l-2.06-.274c-.74-1.213-1.48-2.432-2.2-3.656-3.11-5.226-11.6-17.305-10.4-21.976"/><path fill="#43322C" d="M998.663 806.336c21.877-1.475 30.797 14.275 42.137 29.873 6.45 9.274 16.15 22.716 13.61 34.764-5.88 27.955-22.56 46.829-52.26 43.335-34.086-6.194-66.753-7.221-57.853-54.93 1.717-9.203 3.989-22.175 10.026-29.641 9.901-12.245 28.797-21.346 44.34-23.401"/><path fill="#43322C" d="M1563.5 1461.2c20.52-1.22 55.35 29.14 58.86 48.57 4.94 27.42-20.14 54.07-46.66 59.19-27.89.82-52.92-7.46-58.56-37.77-2.59-13.94-4.09-30.75 4.62-43.05 10.04-14.19 24.75-23.68 41.74-26.94"/><path fill="#43322C" d="M729.294 403.219c12.203.17 18.053 4.367 26.629 12.349 27.938 26.026 58.12 50.435 85.42 77.067 16.864 16.451 5.598 39.605-16.27 45.16-3.971-.371-13.322-1.263-16.384-3.538-12.679-9.417-24.927-21.327-36.889-31.868l-36.792-32.545c-15.04-13.374-41.552-31.358-25.554-55.547 4.893-7.4 11.429-9.451 19.84-11.078"/><path fill="#43322C" d="M950.167 435.603c8.764-7.037 17.396-6.945 27.957-3.96 8.228 3.077 63.616 52.645 70.196 61.281 4.61 6.044 5.44 8.805 7 16.283-5.61 21.37-23.49 38.423-44.55 22.768-19.183-14.14-41.368-38.057-60.469-53.405-13.15-10.566-15.179-30.859-.134-42.967"/><path fill="#291E1B" d="M1048.32 492.924c4.61 6.044 5.44 8.805 7 16.283-5.61 21.37-23.49 38.423-44.55 22.768 3.71-2.752 15.05 5.816 23.12 1.563 16.18-8.518 21.3-20.266 13.88-37.126l-.56-1.238z"/><path fill="#020201" d="M950.167 435.603c8.764-7.037 17.396-6.945 27.957-3.96-5.033 2.821-13.865-.195-25.607 4.796z"/></svg>