<svg xmlns="http://www.w3.org/2000/svg" width="1024" height="1024" preserveAspectRatio="none" style="display:block" viewBox="0 0 2048 2048"><path fill="#363535" d="M1301.95 213.887c15.71-2.572 27.84-1.85 43.57 1.851 35.5 10.01 60.71 27.399 79.04 60.327a127.51 127.51 0 0 1 10.84 96.582 121.4 121.4 0 0 1-58.5 72.571 126.5 126.5 0 0 1-97 9.147 123.44 123.44 0 0 1-72.62-59.954c-6.37-12.208-9.36-23.095-12-36.522-34.35-.006-71.09-.691-105.24.115-.35 32.983-13.42 62.653-42.13 80.506-.22 30.874-.21 61.75 0 92.624 9.59-.835 19.78-1.367 29.37-.389 18.03 1.84 29.19 15.34 29.69 33.115.59 21.155-.09 42.232.15 63.356.53 47.51-19.77 45.412-59.29 44.046l.01 334.698.07 83.25c.01 8.09.52 35.27-.85 41.34 7.82-1.16 36.52-.6 45.77-.6l93.17-.11.08-101.74c-15.91.12-35.84-.71-39.38-20.75a24.96 24.96 0 0 1 4.85-19.443 25.26 25.26 0 0 1 17.41-9.752c6.1-.616 19.34-.247 25.98-.25l50.49-.018 162.92-.021 233.16.037 78.1-.079c14.77-.015 49.32-3.091 59.96 6.281a26.94 26.94 0 0 1 9.11 19.875c.08 16.63-12.96 24.01-28.12 23.97l-1.38-.02c-2.79 2.5-3.04 4.33-3.1 8.47-.5 40.32-.22 81.12-.18 121.45l.03 227.83.01 66.39c-.02 22.17 1.07 47.5-3.9 68.89-10.11 43.56-46.7 78.89-90.39 88.05-22.49 4.72-49.9 3.43-73.13 3.39l-84.52-.08h-130.95c-24.21 0-48.27.08-72.5-.37-12.5-.24-33.88-8.18-41.8-7.25-7.78-2.41-19.41-9.79-25.71-15.02-34.85-22.52-48.24-69.63-46.94-108.43.82-24.68-.08-50.42-.1-75.18l.08-208.52c-.22-5.85.05-13.59.08-19.58l-88.77.2c-8.91.01-37.65.62-44.63-1.06l-4.21 1.06c-1.51 3.05-.68 65.94-.68 74.22l-.02 161.75c.01 115.83-1.48 235.19.18 350.62 9.32-1.16 28.43-.67 38.62-.67h69.57l88.96.02c16.36-.02 32.5.05 48.86.33 31.86.55 34.96 44.11 2.11 48.68-13.84-.66-32.62-.1-46.72-.1H877.995l-92.857.05c-15.623.01-32.945.5-48.476-.76-3.607-.29-9.341-4.1-11.938-6.7a23.3 23.3 0 0 1-6.777-17.59c.396-9.1 3.945-13.79 10.336-19.55 11.395-6.17 33.459-4.39 46.934-4.39l56.572.01 168.221.22c-1.576-18.43-.615-49.32-.546-68.58l.072-114.98-.126-369.66-.084-326.784-.113-92.359c-.041-12.442-.765-39.619.475-50.926v-1.632l-.96-1.802c-6.499-1.168-23.287-.864-30.758-.884l-61.796.11a7133 7133 0 0 0-93.206-.096c-12.183.037-34.238-.537-45.768.793-5.047 4.057-3.295 44.454-3.296 52.768l.023 96.937v162.675c.003 26.8-.083 53.89.103 80.71.025 3.7.894 7.11 3.449 9.81 12.567 13.29 24.911 22.94 36.926 37.25 46.843 55.79 71.754 127.38 64.188 200.49a259.83 259.83 0 0 1-92.701 172.93c-33.371 27.14-74.648 46.69-116.94 54.29-6.276 1.13-21.415 2.78-25.402 6.61-12.323.06-23.187 1.45-35.998.74-144.289-7.97-260.35-133.61-249.059-279.41 6.606-85.29 40.294-142.22 102.565-197.71-1.272-99.86-.154-202.04-.153-302.126l-.009-115.407c-.02-22.04-.682-47.907.437-69.528a150.03 150.03 0 0 1 51.338-106.01c31.604-27.997 73.897-40.967 115.796-38.224a158.46 158.46 0 0 1 109.807 54.875c32.176 36.923 41.597 79.118 38.072 127.05l.342 1.649 1.287 1.039c63.739.016 172.103-.205 231.876.072-.508-6.953-.514-10.054-.047-17.01-12.678-.34-30.351 1.287-41.826-3.309-5.463-1.712-15.538-13.496-16.019-18.806-1.838-20.31-5.718-87.124 2.259-103.163 10.954-20.85 35.155-16.556 55.451-16.487-1.139-12.933-.366-34.33-.485-47.876-.092-10.41-.445-33.588.771-43.149-32.214-18.759-42.244-45.327-43.851-81.245-37.085-.714-76.076-.091-113.359-.156l-.518 3.223c-7.261 46.713-47.648 86.025-93.201 96.214a125.5 125.5 0 0 1-93.591-16.037c-94.059-59.757-67.016-203.717 44.107-226.458 21.669-3.286 48.949-3.173 68.626 7.745 11.257 4.055 34.755 18.015 41.138 27.411 18.177 16.19 26.272 36.491 33.586 58.866 8.039-1.026 18.605-.815 26.804-.716 28.619.347 57.581-.447 86.169.405.519-7.153 1.949-12.241 3.648-19.19 18.085-46.97 75.427-62.317 110.817-26.184 12.1 12.612 18.9 28.055 20.3 45.512 9.51-.744 20.92-.74 30.58-.539 24.51.509 49.96-.772 74.37.339l3.6-11.697c12.04-43.342 58.05-79.963 102.77-82.796M628.242 1562.72c112.359-8.98 202.405-109.4 194.95-222.53-3.642-55.25-29.239-103.33-66.167-143.85-7.652-8.39-36.204-30.97-40.203-40.12-1.258-2.87-.714-30.09-.683-35.72l.058-58.6-.009-289.06.055-76.389c.006-17.958 1.392-43.477-2.904-60.43-13.762-54.306-61.906-86.896-117.491-81.657-30.965 4.057-53.623 13.758-73.143 39.369A100.07 100.07 0 0 0 502.862 641c-1.711 12.029-1.06 39.268-1.054 52.325l.069 92.013.004 238.922c0 41.89.976 88.07-.24 129.71l-.634 1.13c-4.328 7.51-8.507 11.13-15.073 16.63-68.204 57.17-104.493 143.61-81.586 232.21a216.44 216.44 0 0 0 98.873 131.21 212.06 212.06 0 0 0 125.021 27.57m606.068-534.41c-1.36 32.72-.37 71.15-.36 104.32l.02 195.26-.06 110.96c-.06 48.75-8.54 89.98 39.35 118.21 13.23 6.07 14.5 4.88 26.41 8.34 19.61 2.06 41.85 1.46 61.82 1.44l88.54-.02 115.82.03c23.69 0 50.94.56 74.33-.86 19.36-3.41 33.31-8.31 47.76-22.37 26.47-25.75 22.13-61.73 22.12-95.76l-.07-91.7.13-328.3-213.16.12-173.26-.05c-25.4.01-65.19-1.26-89.39.38m-230.04-715.141c-.61 13.796-.64 27.997-.61 41.831.02 12.593-.86 31.559 15.82 32.327 12.17 1.018 14.23-2.328 20.54-11.92.49-21.351.97-45.07-.37-66.478-.14-2.206-2.28-6.399-3.93-7.934-14.23-13.199-29.77-.364-28.52 16.92.37 10.056.32 23.491.45 34.558l-.88 1.55c-1.98-9.966 2.09-32.648-2.5-40.854m55.7 264.987c-16.9-.786-58.65 1.318-72.287-.947.641 14.44.338 30.093.303 44.648l72.734.085c-1.63-6.909-.84-35.05-.75-43.786M709.686 263.358c-40.55 6.607-67.967 44.964-61.093 85.469s45.409 67.67 85.868 60.532c40.086-7.073 66.946-45.176 60.136-85.308-6.81-40.131-44.736-67.24-84.911-60.693m595.434-.611c-40.87 6.275-68.83 44.592-62.35 85.426s44.94 68.604 85.74 61.911c40.51-6.644 68.03-44.766 61.6-85.306-6.44-40.539-44.42-68.26-84.99-62.031"/><path fill="#010101" d="M999.688 741.021c.522 9.877 2.212 21.407 2.322 30.606.35 30.147.2 60.555.16 90.708l-.13 164.365.02 442.8-.18 228.26c-.09 12.64 1.36 58.52-.8 68.34-3.668 3.12-171.238 1.94-191.583 1.94l-57.506.05c-5.995.04-18.405 1.18-23.708.38 11.395-6.17 33.459-4.39 46.934-4.39l56.572.01 168.221.22c-1.576-18.43-.615-49.32-.546-68.58l.072-114.98-.126-369.66-.084-326.784-.113-92.359c-.041-12.442-.765-39.619.475-50.926"/><path fill="#010101" d="M1045.25 1767.62c-1.91-13.93-1.06-54.2-1.07-69.93l.01-135.34.02-247.32c.03-42.86-.1-85.9.41-128.77.04-3.45.08-8.03 2.64-10.4 3.8-.17 2.02-.52 5.5 1.25l-4.21 1.06c-1.51 3.05-.68 65.94-.68 74.22l-.02 161.75c.01 115.83-1.48 235.19.18 350.62 9.32-1.16 28.43-.67 38.62-.67h69.57l88.96.02c16.36-.02 32.5.05 48.86.33 31.86.55 34.96 44.11 2.11 48.68 2.78-3.56 5.63-3.36 8.85-6.03 10.64-8.82 16.71-21.19 5.1-32.3-2.09-2.13-5.07-5.5-8.31-5.77-22.41-1.88-46.74-1.07-69.23-1.04l-118.08.04c-22 0-47.56.57-69.23-.4"/><path fill="#010101" d="M1107.12 627.216c.53 47.51-19.77 45.412-59.29 44.046l.01 334.698.07 83.25c.01 8.09.52 35.27-.85 41.34l-.93.54-.91-.97c-1.79-10.43-1.07-46.02-1.09-59.09l-.02-124.49-.05-183.172c-.02-21.988-1.42-73.742.91-94.115 20.63-2.998 53.25 7.138 58.16-23.843 1.16-7.265-.28-11.5 3.99-18.194"/><path fill="#010101" d="M999.804 671.98c-12.678-.34-30.351 1.287-41.826-3.309-5.463-1.712-15.538-13.496-16.019-18.806-1.838-20.31-5.718-87.124 2.259-103.163l.026.897c.123 6.421-.931 14.033-1.117 20.874q-.42 23.687-.438 47.379c-.166 53.379 10.575 53.826 59.631 52.965q-.12 11.112-.36 22.223c-12.129 1.537-28.034 1.077-40.531 1.057l-59.271-.102-88.333.016c-6.816.004-44.766 1.078-48.204-1.453-.167-2.79-.379-1.79.725-4.328l.342 1.649 1.287 1.039c63.739.016 172.103-.205 231.876.072-.508-6.953-.514-10.054-.047-17.01"/><path fill="#010101" d="M1186.08 1197.55c3.55 18.64 2.35 53.3 2.49 73.73l.48 150.73c.13 48.22-5.97 103.57 24.16 142.9 3.7 4.83 19.18 21.42 19.83 24.77-34.85-22.52-48.24-69.63-46.94-108.43.82-24.68-.08-50.42-.1-75.18z"/><path fill="#010101" d="M809.306 249.887c18.177 16.19 26.272 36.491 33.586 58.866 8.039-1.026 18.605-.815 26.804-.716 28.619.347 57.581-.447 86.169.405.519-7.153 1.949-12.241 3.648-19.19 1.277 7.945.141 13.774-.912 21.622-12.854 1.706-33.892 1.17-47.537 1.169q-35.41.155-70.816-.31c-4.656-11.489-6.14-21.424-13.097-33.941-4.342-7.811-15.539-21.304-17.845-27.905"/><path fill="#010101" d="M1070.33 263.068c12.1 12.612 18.9 28.055 20.3 45.512 9.51-.744 20.92-.74 30.58-.539 24.51.509 49.96-.772 74.37.339l3.6-11.697c.98 6.094.37 8.27-.64 14.194-14.38 1.661-34.63 1.182-49.54 1.168-19.92-.019-41.63.358-61.42-.593-1.47-12.396-4.09-22.212-10.08-33.173-2.62-4.793-7.41-9.897-7.17-15.211"/><path fill="#010101" d="M699.542 214.731c21.669-3.286 48.949-3.173 68.626 7.745-9.88-.833-17.287-4.633-27.46-5.784-13.13-1.485-28.67.645-41.166-1.961"/><path fill="#010101" d="M1301.95 213.887c15.71-2.572 27.84-1.85 43.57 1.851-6.61 1.398-37.68 1.557-43.57-1.851"/><path fill="#363535" d="M602.489 628.139c13.198-.824 28.805 5.993 29.051 20.162.739 42.519 2.786 90.438.549 132.692 9.416.216 16.814.059 24.417 6.909 10.215 9.204 10.469 26.597.691 36.261-7.723 7.634-14.575 7.923-24.713 7.791.839 30.086-.419 60.8.133 90.952.254 13.881.203 28.706-.597 42.517 9.009-.375 16.71-.244 23.998 5.936 10.487 8.893 11.474 27.055 1.727 36.901-7.787 7.87-15.12 7.97-25.448 8.39 1.095 17.56-.27 38.42.186 56.43 30.903 32.08 29.591 60.83 29.515 102.7l-.122 59.87c22.215 10.76 42.517 29.33 55.89 49.99a129.51 129.51 0 0 1 18.236 97.94c-7.968 36.93-29.503 62.41-60.589 82.29-33.206 17.25-67.35 22.5-103.787 11.69a124.92 124.92 0 0 1-73.5-59.21 136.4 136.4 0 0 1-10.053-103.67c11.046-35.91 35.503-61.68 68.096-79.18-.259-38.51-5.033-106.7 11.431-139.82 3.876-7.79 10.278-15.06 15.505-22.05l.147-284.597-.035-88.052c-.038-16.673-1.819-43.176 2.446-59.638 1.687-6.513 10.639-10.942 16.826-13.204"/><path fill="#363535" d="M1295.7 1232.88c2.02-2.48 5.57-4.75 8.6-5.72 7.72-2.48 163.51-2.17 179.29-.83 3.69.31 6.18 1.13 9.42 2.9 6.4 3.59 9.93 7.43 12.05 14.72a26.4 26.4 0 0 1-2.28 20.5c-3.14 5.4-8.38 9.25-14.47 10.63-7.27 1.61-68.56 1.03-78.93 1.03l-59.11.06c-11.9.05-28.46.55-39.89-.66-4-.43-7.84-1.81-11.19-4.04a24.64 24.64 0 0 1-10.94-16.56c-1.49-8.65 1.26-16.02 7.45-22.03"/><path fill="#010101" d="M1493.01 1229.23c6.4 3.59 9.93 7.43 12.05 14.72a26.4 26.4 0 0 1-2.28 20.5c-3.14 5.4-8.38 9.25-14.47 10.63-7.27 1.61-68.56 1.03-78.93 1.03l-59.11.06c-11.9.05-28.46.55-39.89-.66-4-.43-7.84-1.81-11.19-4.04a24.64 24.64 0 0 1-10.94-16.56c-1.49-8.65 1.26-16.02 7.45-22.03-.31 6.05-4.38 11.11-3.96 18.98.75 13.87 9.74 19.65 23.19 20.07 26.88.83 56.31 1.46 83.17.81 29.74-.73 62.44 1.95 91.63-.95 6.06-3.7 11.15-8.05 12.59-15.44 2.28-11.71-4.95-18.13-9.31-27.12"/><path fill="#363535" d="M1297.94 1353.21c9.69-7.16 32.88-5 45.19-5.01l64.06.02 50.34.04c20.93.01 52.14-3.67 47.97 30.37-1.12 9.19-10.72 18.68-20.38 18.88-55.17 1.16-110.59.21-165.8.43-2.87.01-10.73-.23-13.25-1.01a25.7 25.7 0 0 1-15.47-13.39c-4.09-8.47-3.46-18.4 2.66-25.71 1.47-1.99 2.83-2.97 4.68-4.62"/><path fill="#010101" d="M1297.94 1353.21c9.69-7.16 32.88-5 45.19-5.01l64.06.02 50.34.04c20.93.01 52.14-3.67 47.97 30.37-1.12 9.19-10.72 18.68-20.38 18.88-55.17 1.16-110.59.21-165.8.43-2.87.01-10.73-.23-13.25-1.01a25.7 25.7 0 0 1-15.47-13.39c-4.09-8.47-3.46-18.4 2.66-25.71.48 2.87-1.85 12.24-2.53 15.62 5.78 16.67 7.13 20.09 25.57 20.49 40.09.86 80.21.01 120.32.27 17.5.11 35.88.79 53.2-1.26 5.65-.67 9.53-7.98 12.05-12.35 2.24-34.95-21.65-28.67-48.06-28.65l-52.66.09c-28.91.07-76.38-1.35-103.21 1.17"/><path fill="#363535" d="M1308.42 1460.21c18.12-.53 123.73-2.15 133.56 1.61 6.43 2.46 11.78 8.52 14.42 14.74 2.81 6.64 2.33 12.46-.53 18.95-3.61 8.21-8.31 11.06-16.42 14.27-18.84.7-126.99 2.55-137.09-2.07-6.11-2.8-10.7-8.6-12.95-14.83-2.43-6.69-1.71-13.43 1.48-19.76 3.73-7.37 9.94-10.58 17.53-12.91"/><path fill="#363535" d="M1409.34 1105.01c8.53-10.72 19.08-10.4 31.45-8.67 19.04 6.54 17.73 23.34 17.83 39.96.19 15.22-.46 31.12-16.14 38.39-13.1 6.08-33.92-1.44-36.88-15.81-2.41-11.7-4.15-44.76 3.74-53.87"/><path fill="#010101" d="M1440.79 1096.34c19.04 6.54 17.73 23.34 17.83 39.96.19 15.22-.46 31.12-16.14 38.39-13.1 6.08-33.92-1.44-36.88-15.81-2.41-11.7-4.15-44.76 3.74-53.87.62 4.1-1.17 9.26-1.23 13.88-.16 14.01-4.78 39.1 7.22 49.52 6.97 6.04 18.61 4.27 26.89 3.3.83-.54 1.64-1.08 2.44-1.64 14.74-10.32 11.77-46.2 6.83-61.5-.37-1.14-8.73-9.16-10.7-12.23"/><path fill="#363535" d="M1538.93 1171.44c-12.08-8.18-11.37-21.21-11.45-34.4-.07-11.15-1.04-23.38 6.25-32.73 8.86-11.37 27.71-12.46 38.5-3.1 5.89 5.03 9.01 11.08 9.1 19.83.18 20.29 4.5 51.81-23.07 55.7-5.34.75-14.81-1.88-19.33-5.3"/><path fill="#010101" d="M1572.23 1101.21c5.89 5.03 9.01 11.08 9.1 19.83.18 20.29 4.5 51.81-23.07 55.7-5.34.75-14.81-1.88-19.33-5.3 12.18.08 30.59 6.03 36.53-10.52 4.72-13.15 3.44-38.57-.85-52.37-.7-2.26-1.54-3.97-2.17-6.5z"/><path fill="#010101" d="M1231.48 1025.19c51.49-1.35 108.88-.26 160.78-.2l61.21-.04c9.3-.02 37.24-1.58 43.49 3.03l-173.26-.05c-25.4.01-65.19-1.26-89.39.38-1.36 32.72-.37 71.15-.36 104.32l.02 195.26-.06 110.96c-.06 48.75-8.54 89.98 39.35 118.21-9.55-.56-17.57-7.75-23.68-14.69a71.73 71.73 0 0 1-17.49-37.45c-2.15-14.66-1.29-48.03-1.28-64.19l-.03-117.62-.01-192.1c.01-32.21-1.25-74.31.71-105.82"/><path fill="#010101" d="M1299.67 1565.4c19.61 2.06 41.85 1.46 61.82 1.44l88.54-.02 115.82.03c23.69 0 50.94.56 74.33-.86-6.92 6.8-67.89 4.69-81.4 4.7l-109.57-.03-85.37.03c-17.34 0-35.37.35-52.65-.89-6.29-.45-7.42-.75-11.52-4.4"/><path fill="#010101" d="M1004.27 313.169c3.72-22.448 24.32-27.465 35.48-12.031 6.59 9.115 5.23 60.551 2.31 71.917l-2.04 2.352c.49-21.351.97-45.07-.37-66.478-.14-2.206-2.28-6.399-3.93-7.934-14.23-13.199-29.77-.364-28.52 16.92.37 10.056.32 23.491.45 34.558l-.88 1.55c-1.98-9.966 2.09-32.648-2.5-40.854"/><path fill="#010101" d="m987.683 577.209.29-1.302c6.312-2.222 64.577-1.001 73.867.415.56 8.205 1.77 39.07-1.12 45.62-1.63-6.909-.84-35.05-.75-43.786-16.9-.786-58.65 1.318-72.287-.947"/><path fill="#010101" fill-opacity=".988" d="M1004.27 313.169c4.59 8.206.52 30.888 2.5 40.854l.88-1.55c-.15 15.674-3.07 25.78 11.83 34.854-16.68-.768-15.8-19.734-15.82-32.327-.03-13.834 0-28.035.61-41.831"/><path fill="#363535" d="M1599.6 486.171c6.96-.377 14.93-.008 20.75 4.336 10.44 7.809 60.88 97.016 67.31 111.189a93.8 93.8 0 0 1 7.29 24.517c6.58 42.625-12.29 80.963-50.44 100.888-12.67 6.619-23.31 8.548-37.28 10.608-43.92 1.079-81.11-25.472-93.75-67.907-11.96-40.142 5.19-72.678 26.6-105.539 15.07-23.128 27.84-49.29 45.02-70.88 2.88-3.625 10.19-5.937 14.5-7.212m2.62 200.339c13.9-.698 23.29-3.679 32.89-14.457 29.04-32.589-5.11-71.99-20.87-101.81-1.64-3.108-8.76-16.763-10.63-18.572a1340 1340 0 0 1-20.73 35.297c-11.99 19.998-28.2 42.919-21.69 67.408 5.32 20.031 20.87 31.159 41.03 32.134"/><path fill="#363535" d="M1366.77 796.523c-47.4 12.861-99.7-25.136-102.74-74.565a94.1 94.1 0 0 1 5.39-38.671c4.73-13.43 49.7-92.229 57.95-101.105 5.47-5.889 12.21-8.548 20.22-8.68 8.12-.134 14.82 2.095 20.67 7.707-.4 5.018 5.23 13.188 8.05 18.035l27.57 46.62c13.18 22.409 26.7 42.944 26.1 69.835-.55 25.255-8.01 41.693-25.64 59.212-8.31 8.265-34.7 17.549-37.57 21.612m-17.23-48.564c23.47-3.724 37.29-18.54 32.86-41.577-2.15-11.193-27.01-57.252-34.02-63.782-9.3 15.686-20.02 32.256-27.81 48.698-13.51 28.55-4.49 52.838 28.97 56.661"/><path fill="#363535" d="M1516.93 956.03c-35.11 3.757-66.61-10.736-84.02-42.31-9.18-17.173-12.07-42.664-4.81-61.564 12.54-32.665 36.77-66.433 54.71-96.744 7.59-12.817 23.9-13.899 37.2-9.079 12.63 8.987 20.68 27.776 28.41 41.355 13.02 22.862 32.93 49.879 37.31 76.035a78.55 78.55 0 0 1-13.85 59.469 82.2 82.2 0 0 1-52.91 32.635c-1 .159-1.32.159-2.04.203m-10.44-49.596c20.86-2.195 29.58-15.002 28.09-34.17-.84-10.837-22.44-52.335-29.25-58.792-10.17 23.995-36.63 49.275-27.05 76.639 3.83 10.918 17.5 16 28.21 16.323"/><path fill="#010101" d="M1520.01 746.333c12.63 8.987 20.68 27.776 28.41 41.355 13.02 22.862 32.93 49.879 37.31 76.035a78.55 78.55 0 0 1-13.85 59.469 82.2 82.2 0 0 1-52.91 32.635c-1 .159-1.32.159-2.04.203 3.49-3.944 4.76-3.805 9.89-5.313 32.33-9.504 55.75-36.397 56.35-70.785.77-44.16-34.78-78.543-52.01-116.939-2.96-6.598-9.09-9.494-11.15-16.66"/><path fill="#010101" fill-opacity=".984" d="M633.55 1611.98c3.987-3.83 19.126-5.48 25.402-6.61 42.292-7.6 83.569-27.15 116.94-54.29a259.83 259.83 0 0 0 92.701-172.93c7.566-73.11-17.345-144.7-64.188-200.49-12.015-14.31-24.359-23.96-36.926-37.25-2.555-2.7-3.424-6.11-3.449-9.81-.186-26.82-.1-53.91-.103-80.71V887.215l-.023-96.937c.001-8.314-1.751-48.711 3.296-52.768 11.53-1.33 33.585-.756 45.768-.793q46.604-.257 93.206.096l61.796-.11c7.471.02 24.259-.284 30.758.884l.96 1.802c-10.787.841-21.726.419-32.544.547-66.547.791-133.521-1.129-200.025.155.941 11.279.378 29.794.358 41.55l-.104 74.408c.046 92.452-1.366 190.341.496 282.331 60.911 51.08 97.519 113.25 104.504 193.54a258.58 258.58 0 0 1-61.737 189.13c-45.863 54.07-107.41 83.15-177.086 90.93"/><path fill="#010101" fill-opacity=".984" d="M1258.75 1604.7c7.92-.93 29.3 7.01 41.8 7.25 24.23.45 48.29.37 72.5.37H1504l84.52.08c23.23.04 50.64 1.33 73.13-3.39 43.69-9.16 80.28-44.49 90.39-88.05 4.97-21.39 3.88-46.72 3.9-68.89l-.01-66.39-.03-227.83c-.04-40.33-.32-81.13.18-121.45.06-4.14.31-5.97 3.1-8.47 1.24 9.61.3 42.55.3 54.45v118.64l.06 197.79c.01 22.55-.18 45.96-.02 68.38.28 38.79-1.76 68.03-26.33 99.88-39.22 50.85-89.63 48.93-147.07 48.87l-96.94-.11-119.8.08c-30.33.02-85.01 2.98-110.63-11.21"/><path fill="#010101" fill-opacity=".988" d="M1368.26 581.209c9.58 10.244 55.9 92.637 60.83 106.529a81 81 0 0 1 4.55 30.204c-1.46 36.528-29.41 74.265-66.87 78.581 2.87-4.063 29.26-13.347 37.57-21.612 17.63-17.519 25.09-33.957 25.64-59.212.6-26.891-12.92-47.426-26.1-69.835l-27.57-46.62c-2.82-4.847-8.45-13.017-8.05-18.035"/></svg>